<?xml version="1.0" encoding="utf-8"?>
<!-- Generator: Adobe Illustrator 19.1.0, SVG Export Plug-In . SVG Version: 6.00 Build 0)  -->
<!DOCTYPE svg PUBLIC "-//W3C//DTD SVG 1.1//EN" "http://www.w3.org/Graphics/SVG/1.1/DTD/svg11.dtd">
<svg version="1.1" id="Calque_1" xmlns="http://www.w3.org/2000/svg" xmlns:xlink="http://www.w3.org/1999/xlink" x="0px" y="0px"
	 viewBox="0 0 517.9 216.6" style="enable-background:new 0 0 517.9 216.6;" xml:space="preserve">
<style type="text/css">
	.st0{fill:#0CB2FF;}
	.st1{fill:#0D4370;}
	.st2{fill:#282A2B;}
	.st3{fill:#FFFFFF;}
	.st4{fill:#0CB2FF;stroke:#262728;stroke-width:4;stroke-miterlimit:10;}
	.st5{fill:none;stroke:#FFFFFF;stroke-width:6;stroke-linecap:round;stroke-miterlimit:10;}
	.text{fill:#FFF;}
</style>
<g>
	<g>
		<path class="st0" d="M243.9,131.7v-13h1.5c19.4,0,38.2-20.3,58-41.7c23.1-25,47-50.8,77.3-50.8h1.5v13h-1.5
			c-24.6,0-46.5,23.7-67.8,46.6c-21.8,23.6-42.5,45.9-67.6,45.9H243.9z"/>
		<path class="st1" d="M380.7,27.7v10c-25.3,0-47.4,23.9-68.9,47.1c-21.6,23.4-42,45.4-66.5,45.4v-10c20.1,0,39-20.5,59.1-42.2
			C327.4,53.2,351,27.7,380.7,27.7 M383.7,24.7h-3c-31,0-55.1,26.1-78.4,51.3c-19.6,21.2-38.2,41.3-56.9,41.3h-3v3v10v3h3
			c25.7,0,46.6-22.5,68.7-46.4c21-22.7,42.7-46.1,66.7-46.1h3v-3v-10V24.7L383.7,24.7z"/>
	</g>
</g>
<path class="st2" d="M233.2,212.5H28c-6.6,0-12-5.4-12-12V51.6c0-6.6,5.4-12,12-12h205.2c6.6,0,12,5.4,12,12v148.9
	C245.2,207.1,239.8,212.5,233.2,212.5z"/>
<rect x="54.4" y="53.6" class="st3" width="152.5" height="35.5"/>
<path class="st2" d="M490.8,64.2h-97.4c-6.6,0-12-5.4-12-12V12c0-6.6,5.4-12,12-12h97.4c6.6,0,12,5.4,12,12v40.2
	C502.8,58.8,497.4,64.2,490.8,64.2z"/>
<rect x="416.8" y="14" class="st3" width="51.4" height="36"/>
<g>
	<circle class="st4" cx="15.3" cy="123.7" r="13.3"/>
	<circle class="st4" cx="15.3" cy="163.7" r="13.3"/>
	<circle class="st4" cx="245.4" cy="125.2" r="13.3"/>
	<circle class="st4" cx="380.7" cy="32.7" r="13.3"/>
	<circle class="st4" cx="502.6" cy="34.2" r="13.3"/>
</g>
<path class="st5" d="M260.6,147c19.6,25.3,56.2,15.7,62,39.7"/>
<polyline class="st5" points="255.3,154 256.6,143 267.3,144.1 "/>
<g class="text">
	<path d="M329.3,109.4h4.4c0.6,0,0.9,0.3,0.9,0.9v20.2c0,0.6-0.3,0.9-0.9,0.9h-4.4c-0.6,0-0.9-0.3-0.9-0.9v-20.2
		C328.4,109.8,328.7,109.4,329.3,109.4z"/>
	<path d="M350.1,109.4h4.4c0.6,0,0.9,0.3,0.9,0.9v20.2c0,0.6-0.3,0.9-0.9,0.9h-4.7c-0.5,0-0.9-0.2-1.1-0.7l-4.6-9.7v9.4
		c0,0.6-0.3,0.9-0.9,0.9h-4.4c-0.6,0-0.9-0.3-0.9-0.9v-20.2c0-0.6,0.3-0.9,0.9-0.9h5.3c0.5,0,0.9,0.2,1.1,0.7l4,8.5v-8.2
		C349.2,109.8,349.5,109.4,350.1,109.4z"/>
	<path d="M374.2,116.3c-0.1,3.8-3.3,7-7,7h-2.3v7.2c0,0.6-0.3,0.9-0.9,0.9h-4.4c-0.6,0-0.9-0.3-0.9-0.9v-20.2c0-0.6,0.3-0.9,0.9-0.9
		h7.6C370.9,109.4,374.3,112.5,374.2,116.3z M368.5,116.4c0-0.7-0.6-1.3-1.3-1.3h-2.3v2.6h2.3C367.9,117.7,368.5,117.1,368.5,116.4z
		"/>
	<path d="M377.5,109.4h4.1c0.6,0,0.9,0.3,0.9,0.9V124c0,1.1,0.9,2.1,2.1,2.1c1.1,0,2.1-0.9,2.1-2.1v-13.6c0-0.6,0.3-0.9,0.9-0.9h4
		c0.6,0,0.9,0.3,0.9,0.9v13.8c0,4.4-3.6,8-8,8c-4.4,0-8-3.7-8-8v-13.8C376.5,109.8,376.9,109.4,377.5,109.4z"/>
	<path d="M413,110.4v3.9c0,0.6-0.3,0.9-0.9,0.9h-4.4v15.3c0,0.6-0.3,0.9-0.9,0.9h-4.4c-0.6,0-0.9-0.3-0.9-0.9v-15.3h-4.9
		c-0.6,0-0.9-0.3-0.9-0.9v-3.9c0-0.6,0.3-0.9,0.9-0.9h15.6C412.7,109.4,413,109.8,413,110.4z"/>
</g>
<path class="st5" d="M369.7,55.7c-8.6,14.9-8.5,26.7-2.4,47.4"/>
<polyline class="st5" points="361,54.8 371.8,52.1 374.5,62.5 "/>
<g class="text">
	<path d="M263.5,202.8c0-5.9,4.8-10.7,10.7-10.7c5.9,0,10.7,4.8,10.7,10.7v2.2c0,5.9-4.8,10.7-10.7,10.7c-5.9,0-10.7-4.8-10.7-10.7
		V202.8z M274.3,209.4c2.6,0,4.6-2.1,4.6-4.6V203c0-2.5-2.1-4.6-4.6-4.6c-2.5,0-4.5,2.1-4.5,4.6v1.8
		C269.8,207.3,271.9,209.4,274.3,209.4z"/>
	<path d="M289,193h4.1c0.6,0,0.9,0.3,0.9,0.9v13.6c0,1.1,0.9,2.1,2.1,2.1c1.1,0,2.1-0.9,2.1-2.1V194c0-0.6,0.3-0.9,0.9-0.9h4
		c0.6,0,0.9,0.3,0.9,0.9v13.8c0,4.4-3.6,8-8,8c-4.4,0-8-3.7-8-8V194C288,193.4,288.4,193,289,193z"/>
	<path d="M324.5,194v3.9c0,0.6-0.3,0.9-0.9,0.9h-4.4v15.3c0,0.6-0.3,0.9-0.9,0.9h-4.4c-0.6,0-0.9-0.3-0.9-0.9v-15.3H308
		c-0.6,0-0.9-0.3-0.9-0.9V194c0-0.6,0.3-0.9,0.9-0.9h15.6C324.2,193,324.5,193.4,324.5,194z"/>
	<path d="M343.2,199.9c-0.1,3.8-3.3,7-7,7h-2.3v7.2c0,0.6-0.3,0.9-0.9,0.9h-4.4c-0.6,0-0.9-0.3-0.9-0.9V194c0-0.6,0.3-0.9,0.9-0.9
		h7.6C339.9,193,343.4,196.1,343.2,199.9z M337.6,199.9c0-0.7-0.6-1.3-1.3-1.3h-2.3v2.6h2.3C336.9,201.2,337.6,200.6,337.6,199.9z"
		/>
	<path d="M346.5,193h4.1c0.6,0,0.9,0.3,0.9,0.9v13.6c0,1.1,0.9,2.1,2.1,2.1c1.1,0,2.1-0.9,2.1-2.1V194c0-0.6,0.3-0.9,0.9-0.9h4
		c0.6,0,0.9,0.3,0.9,0.9v13.8c0,4.4-3.6,8-8,8c-4.4,0-8-3.7-8-8V194C345.6,193.4,345.9,193,346.5,193z"/>
	<path d="M382.1,194v3.9c0,0.6-0.3,0.9-0.9,0.9h-4.4v15.3c0,0.6-0.3,0.9-0.9,0.9h-4.4c-0.6,0-0.9-0.3-0.9-0.9v-15.3h-4.9
		c-0.6,0-0.9-0.3-0.9-0.9V194c0-0.6,0.3-0.9,0.9-0.9h15.6C381.7,193,382.1,193.4,382.1,194z"/>
</g>
<g>
</g>
<g>
</g>
<g>
</g>
<g>
</g>
<g>
</g>
<g>
</g>
</svg>
