<?xml version="1.0" encoding="utf-8"?>
<!-- Generator: Adobe Illustrator 21.0.0, SVG Export Plug-In . SVG Version: 6.00 Build 0)  -->
<svg version="1.1" id="Grid" xmlns="http://www.w3.org/2000/svg" xmlns:xlink="http://www.w3.org/1999/xlink" x="0px" y="0px"
	 viewBox="0 0 200 200" style="enable-background:new 0 0 200 200;" xml:space="preserve">
<style type="text/css">
	.st0{fill:#212223;}
	.st1{fill:#1f2021;}
</style>
<g id="Small">
	<rect x="11.5" y="1.5" class="st0" width="1" height="198.5"/>
	<rect x="21.5" y="1.5" class="st0" width="1" height="198.5"/>
	<rect x="31.5" y="1.5" class="st0" width="1" height="198.5"/>
	<rect x="41.5" y="1.5" class="st0" width="1" height="198.5"/>
	<rect x="61.5" y="1.5" class="st0" width="1" height="198.5"/>
	<rect x="71.5" y="1.5" class="st0" width="1" height="198.5"/>
	<rect x="81.5" y="1.5" class="st0" width="1" height="198.5"/>
	<rect x="91.5" y="1.5" class="st0" width="1" height="198.5"/>
	<rect x="51.5" y="1.5" class="st0" width="1" height="198.5"/>
	<rect x="121.5" y="1.5" class="st0" width="1" height="198.5"/>
	<rect x="131.5" y="1.5" class="st0" width="1" height="198.5"/>
	<rect x="141.5" y="1.5" class="st0" width="1" height="198.5"/>
	<rect x="151.5" y="1.5" class="st0" width="1" height="198.5"/>
	<rect x="171.5" y="1.5" class="st0" width="1" height="198.5"/>
	<rect x="181.5" y="1.5" class="st0" width="1" height="198.5"/>
	<rect x="191.5" y="1.5" class="st0" width="1" height="198.5"/>
	<rect x="161.5" y="1.5" class="st0" width="1" height="198.5"/>
	<rect x="101.5" y="1.5" class="st0" width="1" height="198.5"/>
	<rect x="111.5" y="1.5" class="st0" width="1" height="198.5"/>

		<rect x="100.2" y="92.8" transform="matrix(6.123234e-17 -1 1 6.123234e-17 -91.25 292.75)" class="st0" width="1" height="198.5"/>

		<rect x="100.2" y="82.8" transform="matrix(6.123234e-17 -1 1 6.123234e-17 -81.25 282.75)" class="st0" width="1" height="198.5"/>

		<rect x="100.2" y="72.8" transform="matrix(6.123234e-17 -1 1 6.123234e-17 -71.25 272.75)" class="st0" width="1" height="198.5"/>

		<rect x="100.2" y="62.8" transform="matrix(6.123234e-17 -1 1 6.123234e-17 -61.25 262.75)" class="st0" width="1" height="198.5"/>

		<rect x="100.2" y="42.8" transform="matrix(6.123234e-17 -1 1 6.123234e-17 -41.25 242.75)" class="st0" width="1" height="198.5"/>

		<rect x="100.2" y="32.8" transform="matrix(6.123234e-17 -1 1 6.123234e-17 -31.25 232.75)" class="st0" width="1" height="198.5"/>

		<rect x="100.2" y="22.8" transform="matrix(6.123234e-17 -1 1 6.123234e-17 -21.25 222.75)" class="st0" width="1" height="198.5"/>

		<rect x="100.2" y="12.8" transform="matrix(6.123234e-17 -1 1 6.123234e-17 -11.25 212.75)" class="st0" width="1" height="198.5"/>

		<rect x="100.2" y="52.8" transform="matrix(6.123234e-17 -1 1 6.123234e-17 -51.25 252.75)" class="st0" width="1" height="198.5"/>

		<rect x="100.2" y="-17.2" transform="matrix(6.123234e-17 -1 1 6.123234e-17 18.75 182.75)" class="st0" width="1" height="198.5"/>

		<rect x="100.2" y="-27.2" transform="matrix(6.123234e-17 -1 1 6.123234e-17 28.75 172.75)" class="st0" width="1" height="198.5"/>

		<rect x="100.2" y="-37.2" transform="matrix(6.123234e-17 -1 1 6.123234e-17 38.75 162.75)" class="st0" width="1" height="198.5"/>

		<rect x="100.2" y="-47.2" transform="matrix(6.123234e-17 -1 1 6.123234e-17 48.75 152.75)" class="st0" width="1" height="198.5"/>

		<rect x="100.2" y="-67.2" transform="matrix(6.123234e-17 -1 1 6.123234e-17 68.75 132.75)" class="st0" width="1" height="198.5"/>

		<rect x="100.2" y="-77.2" transform="matrix(6.123234e-17 -1 1 6.123234e-17 78.75 122.75)" class="st0" width="1" height="198.5"/>

		<rect x="100.2" y="-87.2" transform="matrix(6.123234e-17 -1 1 6.123234e-17 88.75 112.75)" class="st0" width="1" height="198.5"/>

		<rect x="100.2" y="-57.2" transform="matrix(6.123234e-17 -1 1 6.123234e-17 58.75 142.75)" class="st0" width="1" height="198.5"/>
	<rect x="100.2" y="2.8" transform="matrix(6.123234e-17 -1 1 6.123234e-17 -1.25 202.75)" class="st0" width="1" height="198.5"/>
	<rect x="100.2" y="-7.2" transform="matrix(6.123234e-17 -1 1 6.123234e-17 8.75 192.75)" class="st0" width="1" height="198.5"/>
</g>
<g id="Big">
	<rect class="st1" width="3" height="200"/>
	<rect class="st1" width="200" height="3"/>
</g>
</svg>
