<?xml version="1.0" encoding="utf-8"?>
<!-- Generator: Adobe Illustrator 19.1.0, SVG Export Plug-In . SVG Version: 6.00 Build 0)  -->
<!DOCTYPE svg PUBLIC "-//W3C//DTD SVG 1.1//EN" "http://www.w3.org/Graphics/SVG/1.1/DTD/svg11.dtd">
<svg version="1.1" id="Calque_1" xmlns="http://www.w3.org/2000/svg" xmlns:xlink="http://www.w3.org/1999/xlink" x="0px" y="0px"
	 viewBox="0 0 200 40" style="enable-background:new 0 0 200 40;" xml:space="preserve">
<style type="text/css">
	.st0{fill:#FFFFFF;}
</style>
<g>
	<g>
		<polygon class="st0" points="94.4,22.7 83.5,8.8 77.6,8.8 77.6,31.4 83.5,31.4 83.5,17.6 94.4,31.4 100.2,31.4 100.2,8.8 
			94.4,8.8 		"/>
		<path class="st0" d="M125.7,11.6c-1.1-1.1-2.4-1.9-4-2.5c-1.5-0.6-3.2-0.9-5-0.9c-1.8,0-3.5,0.3-5.1,0.9c-1.5,0.6-2.8,1.5-3.9,2.5
			c-1.1,1.1-2,2.3-2.6,3.8s-0.9,3-0.9,4.7s0.3,3.2,0.9,4.7c0.6,1.5,1.5,2.7,2.6,3.8c1.1,1.1,2.4,1.9,3.9,2.5
			c1.5,0.6,3.2,0.9,5.1,0.9c1.8,0,3.5-0.3,5-0.9c1.5-0.6,2.9-1.5,4-2.5s2-2.3,2.6-3.8c0.6-1.4,0.9-3,0.9-4.7s-0.3-3.2-0.9-4.7
			C127.7,14,126.8,12.7,125.7,11.6z M122.6,22.6c-0.3,0.8-0.8,1.4-1.4,2c-0.6,0.6-1.3,1-2,1.3c-0.8,0.3-1.6,0.5-2.4,0.5
			s-1.7-0.2-2.4-0.5c-0.8-0.3-1.4-0.7-2-1.3c-0.6-0.6-1-1.2-1.4-2s-0.5-1.6-0.5-2.5s0.2-1.7,0.5-2.5s0.8-1.4,1.4-2
			c0.6-0.6,1.3-1,2-1.3c0.8-0.3,1.6-0.5,2.4-0.5s1.7,0.2,2.4,0.5c0.8,0.3,1.4,0.7,2,1.3c0.6,0.6,1.1,1.2,1.4,2
			c0.3,0.8,0.5,1.6,0.5,2.5S122.9,21.9,122.6,22.6z"/>
		<path class="st0" d="M149.5,12.2c-1-1-2.2-1.9-3.5-2.5c-1.4-0.6-2.8-0.9-4.3-0.9H133v22.6h8.7c1.6,0,3-0.3,4.4-0.9
			c1.4-0.6,2.5-1.5,3.5-2.5c1-1,1.8-2.2,2.4-3.6c0.6-1.4,0.9-2.8,0.9-4.3c0-1.5-0.3-2.9-0.9-4.3C151.3,14.5,150.5,13.3,149.5,12.2z
			 M146.2,22.7c-0.3,0.8-0.7,1.4-1.3,2c-0.6,0.6-1.2,1-2,1.3c-0.8,0.3-1.7,0.5-2.7,0.5h-1.3V13.8h1.3c1,0,1.9,0.2,2.7,0.5
			c0.8,0.3,1.5,0.8,2,1.3c0.5,0.6,1,1.2,1.3,2c0.3,0.8,0.5,1.6,0.5,2.5C146.6,21.1,146.5,21.9,146.2,22.7z"/>
		<polygon class="st0" points="156.5,31.4 169.4,31.4 169.4,26.5 162.4,26.5 162.4,22.6 169,22.6 169,17.6 162.4,17.6 162.4,13.8 
			169.4,13.8 169.4,8.8 156.5,8.8 		"/>
		<path class="st0" d="M188,20.2c-0.9-1.1-2.3-1.9-4.2-2.6c-0.5-0.2-1-0.3-1.5-0.5c-0.5-0.1-0.9-0.3-1.3-0.5
			c-0.4-0.2-0.7-0.4-0.9-0.7c-0.2-0.3-0.4-0.6-0.4-1c0-0.6,0.2-1,0.7-1.4c0.5-0.4,1.1-0.5,1.9-0.5c0.6,0,1.2,0.1,1.9,0.4
			c0.6,0.2,1.3,0.6,1.9,1.2l2.3-4.6c-1.1-0.6-2.3-1.1-3.5-1.4c-1.2-0.3-2.4-0.5-3.5-0.5c-1.2,0-2.3,0.2-3.3,0.5
			c-1,0.4-1.8,0.9-2.5,1.5s-1.2,1.4-1.6,2.3c-0.4,0.9-0.6,1.9-0.6,3c0,1.1,0.2,2,0.5,2.8c0.3,0.7,0.8,1.3,1.4,1.8
			c0.6,0.5,1.2,0.9,2,1.2c0.7,0.3,1.5,0.6,2.2,0.8c0.6,0.2,1.2,0.4,1.6,0.6c0.5,0.2,0.8,0.4,1.1,0.6s0.5,0.4,0.6,0.7
			c0.1,0.3,0.2,0.5,0.2,0.9c0,0.6-0.2,1.1-0.7,1.5c-0.5,0.4-1.2,0.7-2.1,0.7c-0.8,0-1.7-0.2-2.5-0.6c-0.9-0.4-1.7-1-2.6-1.7
			l-2.5,4.7c2.4,1.7,5.1,2.5,8,2.5c1.4,0,2.6-0.2,3.7-0.6s2-0.9,2.8-1.6c0.8-0.7,1.3-1.5,1.7-2.4c0.4-0.9,0.6-2,0.6-3.1
			C189.3,22.7,188.9,21.3,188,20.2z"/>
	</g>
	<g>
		<path class="st0" d="M33.3,31.2c-1.3,0-2.3-1-2.3-2.3s1-2.3,2.3-2.3c0.1,0,0.1,0,0.2,0v-1.3c0-0.8-0.6-1.4-1.4-1.4H18.3
			c-0.8,0-1.4,0.6-1.4,1.4v8.8c0,0.8,0.6,1.4,1.4,1.4H32c0.8,0,1.4-0.6,1.4-1.4v-3C33.4,31.2,33.3,31.2,33.3,31.2z"/>
		<circle class="st0" cx="33.3" cy="28.9" r="1.3"/>
	</g>
	<circle class="st0" cx="47.6" cy="18.6" r="1.3"/>
	<g>
		<circle class="st0" cx="33.3" cy="8.9" r="1.3"/>
		<path class="st0" d="M46,16.9c-1.9-0.6-3.2-2.3-4.6-4.1c-1.6-2.1-3.4-4.3-6.2-5.1c0.2,0.4,0.4,0.8,0.4,1.2c0,0.7-0.3,1.3-0.8,1.8
			c1.7,0.6,2.9,2.2,4.3,3.9c1.7,2.2,3.6,4.6,6.7,5.3c-0.3-0.4-0.4-0.8-0.4-1.3C45.3,17.9,45.6,17.3,46,16.9z"/>
		<path class="st0" d="M33.3,11.2c-1.3,0-2.3-1-2.3-2.3s1-2.3,2.3-2.3c0.1,0,0.1,0,0.2,0V5.4C33.4,4.6,32.8,4,32,4H18.3
			c-0.8,0-1.4,0.6-1.4,1.4v8.7c0,0.8,0.6,1.4,1.4,1.4H32c0.8,0,1.4-0.6,1.4-1.4v-2.9C33.4,11.2,33.3,11.2,33.3,11.2z"/>
	</g>
	<g>
		<circle class="st0" cx="47.6" cy="24.2" r="1.3"/>
		<path class="st0" d="M62.6,13.7H48.8c-0.8,0-1.4,0.6-1.4,1.4v1.2c0.1,0,0.1,0,0.2,0c1.3,0,2.3,1,2.3,2.3s-1,2.3-2.3,2.3
			c-0.1,0-0.1,0-0.2,0V22c0.1,0,0.1,0,0.2,0c1.3,0,2.3,1,2.3,2.3s-1,2.3-2.3,2.3c-0.1,0-0.1,0-0.2,0v1.3c0,0.8,0.6,1.4,1.4,1.4h13.8
			c0.8,0,1.4-0.6,1.4-1.4V15.1C64,14.4,63.4,13.7,62.6,13.7z"/>
		<path class="st0" d="M45.3,24.2c0-0.5,0.2-1,0.5-1.4c-2.9,0.4-4.7,1.5-6.4,2.6c-1.4,0.9-2.6,1.7-4.4,2c0.3,0.4,0.6,0.9,0.6,1.5
			c0,0.6-0.2,1.1-0.6,1.5c2.7-0.3,4.5-1.5,6.1-2.5c1.5-1,2.8-1.8,4.9-2.1C45.5,25.4,45.3,24.9,45.3,24.2z"/>
	</g>
</g>
</svg>
